<?xml version="1.0" encoding="UTF-8"?>
<!DOCTYPE svg  PUBLIC '-//W3C//DTD SVG 1.1//EN'  'http://www.w3.org/Graphics/SVG/1.1/DTD/svg11.dtd'>
<svg width="210mm" height="211.58mm" clip-rule="evenodd" fill-rule="evenodd" image-rendering="optimizeQuality" shape-rendering="geometricPrecision" text-rendering="geometricPrecision" version="1.1" viewBox="0 0 21000 21157" xml:space="preserve" xmlns="http://www.w3.org/2000/svg">
 <defs>
  <style type="text/css">
   <![CDATA[
    .fil2 {fill:none}
    .fil3 {fill:#008DD2}
    .fil0 {fill:#5B5B5B}
    .fil4 {fill:#DCCF73}
    .fil1 {fill:#E31E24}
    .fil7 {fill:#0378B4}
    .fil6 {fill:#CC232A}
    .fil5 {fill:#CDC372}
   ]]>
  </style>
 </defs>
   <rect class="fil0" transform="matrix(1.175 -.064508 .064508 1.175 687.59 3366.5)" width="7775" height="170"/>
   <rect class="fil0" transform="matrix(1.1755 -.054394 .054394 1.1755 572.09 8816.7)" width="7775" height="170"/>
   <rect class="fil0" transform="matrix(3.1167e-14 1.1768 -1.1768 3.1167e-14 6962.1 1471.5)" width="7775" height="170"/>
   <rect class="fil0" transform="matrix(.045125 1.1759 -1.1759 .045125 3698.7 1413.9)" width="7775" height="170"/>
   <rect class="fil0" transform="matrix(1.3821 .023931 -.028113 1.1766 4.7861 5595.8)" width="7775" height="170"/>
    <path class="fil1" d="m2517 1563c-5-5-12-10-18-15-2 0-3-1-5-2l-7-2 10 2c-245-184-824-404-1073-162-279 272-261 699-52 1009 50 75 312 397 378 450 694 558 1068-759 924-1047-23-46-111-209-169-244 4 3 8 7 12 11zm-17-16c2 1 3 1 4 1 57 15 219 267 235 369 53 317-119 895-380 1111-346 286-941-32-1127-354-239-416-274-1030 128-1357 303-246 882 3 1140 230z"/>
   <path class="fil2" d="m2517 1563c-128-152-841-479-1125-212-756 711 336 2061 928 1624 249-184 358-563 398-865 43-317-67-349-201-555-3-4-24-9-30-11"/>
    <path class="fil1" d="m4522 4143c-3 7-6 14-9 22v12l-1-9c-115 284-178 900 121 1078 335 199 742 71 988-211 60-68 303-404 337-482 360-815-1010-835-1250-622-39 35-174 162-193 227 2-5 5-10 7-15zm-10 21v-4c0-59 201-280 295-323 293-132 895-116 1172 80 366 261 213 918-51 1180-339 339-923 531-1343 228-316-229-225-853-73-1161z"/>
   <path class="fil2" d="m4522 4143c-113 164-244 937 87 1142 883 547 1904-858 1329-1316-242-193-637-200-938-162-318 41-320 156-485 338-3 4-2 26-2 32"/>
    <path class="fil1" d="m5464 941c-26-2-52-2-78-3v3-3c-444-4-747 147-902 605-138 409-87 1355 517 1267 236-35-37-25 191-15 514 25 834-350 934-825 101-479-128-886-575-1076-91-38-155-63-165 41 26 1 52 3 78 6zm-78-6c2-35 9-77 52-78 154-5 433 186 538 301 474 519 218 1483-393 1764-74 35-400 137-468 141-10 0-255-40-255-40-613-157-634-1025-439-1504 189-462 504-611 965-584z"/>
   <path class="fil2" d="m5464 941c-453-42-757 69-971 498-230 458-197 1505 510 1489 566-12 907-174 1111-744 199-555-21-1086-561-1295-83-32-167-64-167 52"/>
     <path class="fil3" d="m1147 3702l86-86c8-8 21-13 38-14l-48 48c16 244 1240 1329 1389 1541 24 33 27 44 67 40l-86 87c-40 3-43-8-67-41-158-225-1524-1430-1379-1575z"/>
    <path class="fil2" d="m1228 3645c-337 23 1174 1352 1341 1589 24 33 27 44 67 41"/>
     <path class="fil3" d="m886 4994c128-123 900-286 1304-494 83-42 675-194 756-187l-87 86c-80-7-673 145-755 188-404 207-1177 370-1304 494l86-87z"/>
    <path class="fil2" d="m843 5038c128-124 900-287 1304-495 83-42 675-194 756-187"/>
     <path class="fil3" d="m8822 716c-241-9-793 1747-791 1750l-113-30c-2-3 550-1759 791-1751l113 31z"/>
    <path class="fil2" d="m8766 700c-242-8-793 1748-792 1751"/>
     <path class="fil3" d="m7726 1086c317 235 638 713 1068 1046 262 204 378 461 558 636l-113-30c-180-176-296-432-558-636-429-333-751-812-1068-1046l113 30z"/>
    <path class="fil2" d="m7669 1071c318 235 639 713 1068 1046 263 204 378 461 558 636"/>
     <path class="fil3" d="m4452 5976c-79 246 1275 1897 1613 2206l-108 108c-338-309-1692-1961-1613-2206l108-108z"/>
    <path class="fil2" d="m4398 6030c-79 246 1275 1897 1613 2206"/>
     <path class="fil3" d="m4530 7919c-3-8 3-18 15-31l108-108c145-144 1206-584 1458-743 233-146 500-233 751-320l-108 108c-251 87-518 174-751 320-229 144-1125 520-1396 697l-77 77z"/>
    <path class="fil2" d="m4583 7865c-29-97 1200-602 1474-774 233-146 500-233 751-320"/>
    <polygon class="fil4" points="10295 5261 6751 4937 9658 2884 20204 58 20841 2435"/>
    <path class="fil1" d="m7986 5050l-1232-111c-6-1-1-4-2-6l1012-711c220 249 287 526 222 828z"/>
    <path class="fil1" d="m10295 5261l418-412c-192-61-709-29-578-182l356-414c-225-48-850 5-676-146l517-448c-172-60-634-43-515-180l355-414-514-181 10678-2884c45 168-42 371 4 539 28 106 312 146 347 252 68 202-71 384-41 598 17 120 281 190 326 316 80 221-44 499 10 700l-10687 2856z"/>
    <ellipse class="fil5" transform="matrix(-.085578 -1.4241 1.4241 -.085579 9037.1 4737)" rx="55" ry="604"/>
    <ellipse class="fil5" transform="matrix(.66738 1.335 1.335 -.66738 8821.9 4017.6)" rx="55" ry="604"/>
    <ellipse class="fil6" transform="matrix(-.11076 -.41337 1.378 -.36925 15114 3491)" rx="121" ry="3086"/>
    <ellipse class="fil6" transform="matrix(-.11076 -.41337 1.378 -.36925 14628 2078.2)" rx="121" ry="3086"/>
    <ellipse class="fil6" transform="matrix(-.12864 -.48009 1.6005 -.42885 14880 2782.2)" rx="121" ry="3086"/>
    <polygon class="fil4" points="6498 11563 5894 8052 8632 10331 14098 19797 11964 21029"/>
    <path class="fil3" d="m6105 9276l-213-1220c0-7 4-3 6-4l950 794c-184 278-435 414-743 430z"/>
    <path class="fil3" d="m6498 11563l508 298c9-202-156-694 26-606l492 236c-11-230-225-821-34-691l567 383c14-181-122-623 42-544l492 236 41-544 5556 9579c-151 87-369 55-520 143-96 55-60 340-154 401-178 118-390 30-589 115-112 48-111 322-220 398-194 134-495 86-675 190l-5532-9594z"/>
    <ellipse class="fil5" transform="matrix(1.3549 -.45175 .45175 1.3549 6679.6 10211)" rx="55" ry="604"/>
    <ellipse class="fil5" transform="matrix(-1.118 .99126 .99126 1.118 7319.6 9816.3)" rx="55" ry="604"/>
    <ellipse class="fil7" transform="matrix(.37103 -.21421 .71413 1.2369 9459.1 15764)" rx="121" ry="3086"/>
    <ellipse class="fil7" transform="matrix(.37103 -.21421 .71413 1.2369 10699 14928)" rx="121" ry="3086"/>
    <ellipse class="fil7" transform="matrix(.43092 -.24879 .8294 1.4366 10084 15354)" rx="121" ry="3086"/>
</svg>
